<svg width="44" height="44" viewBox="0 0 44 44" fill="none" xmlns="http://www.w3.org/2000/svg">
<rect width="44" height="44" rx="12" fill="#F5F3FB"/>
<path d="M16 31V29C16 27.9391 16.4214 26.9217 17.1716 26.1716C17.9217 25.4214 18.9391 25 20 25H24C25.0609 25 26.0783 25.4214 26.8284 26.1716C27.5786 26.9217 28 27.9391 28 29V31M18 17C18 18.0609 18.4214 19.0783 19.1716 19.8284C19.9217 20.5786 20.9391 21 22 21C23.0609 21 24.0783 20.5786 24.8284 19.8284C25.5786 19.0783 26 18.0609 26 17C26 15.9391 25.5786 14.9217 24.8284 14.1716C24.0783 13.4214 23.0609 13 22 13C20.9391 13 19.9217 13.4214 19.1716 14.1716C18.4214 14.9217 18 15.9391 18 17Z" stroke="#5C5AF3" stroke-width="2" stroke-linecap="round" stroke-linejoin="round"/>
</svg>
